<mxfile host="app.diagrams.net" modified="2024-04-23T10:50:30.937Z" agent="Mozilla/5.0 (Windows NT 10.0; Win64; x64) AppleWebKit/537.36 (KHTML, like Gecko) Chrome/124.0.0.0 Safari/537.36" version="24.2.8" etag="5T8ue9PRl1R3ctV5-ufl" type="github">
  <diagram name="Page-1" id="VTEIncr-sB7ly4I6MUMN">
    <mxGraphModel>
      <root>
        <mxCell id="0" />
        <mxCell id="1" parent="0" />
      </root>
    </mxGraphModel>
  </diagram>
</mxfile>
